<?xml version="1.0" encoding="UTF-8"?>
<svg id="Capa_2" data-name="Capa 2" xmlns="http://www.w3.org/2000/svg" viewBox="0 0 1685.51 1575.13">
  <defs>
    <style>
      .cls-1 {
        fill: #e8348a;
      }

      .cls-2 {
        fill: #ee731f;
      }

      .cls-3 {
        fill: #fdd518;
      }

      .cls-4 {
        fill: #f7a813;
      }

      .cls-5 {
        fill: #f4971a;
      }

      .cls-6 {
        fill: #e4569a;
      }

      .cls-7 {
        fill: #a3195b;
      }
    </style>
  </defs>
  <path class="cls-6" d="M1603.32,468.26c-69.32-41.54-160.07-23.81-231.07,14.8-70.99,38.61-130.41,95.59-199.89,136.87-27.09,16.09-55.67,29.63-85.25,40.52,68.01-49.72,128.77-110.69,174.71-169.43,46.46-59.4,85.13-126.79,99.52-200.82,14.39-74.03,2.09-155.47-44.46-214.8-46.55-59.33-130.19-91.06-201.36-66.13-76.27,26.72-120.68,107.82-136.42,187.09-15.73,79.27-9.93,161.39-22.63,241.19-7.19,45.14-20.52,89.28-39.24,131,.92-104.67-22.4-214.42-55-302.35-26.21-70.71-63.31-138.98-118.8-190.05C687.94,25.08,612.14-7.16,537.21,1.36c-74.93,8.52-145.81,63.1-161.9,136.78-17.25,78.95,28.52,159.3,87.77,214.26,59.24,54.96,132.21,93.08,193.5,145.75,38.07,32.72,71.23,71.12,98.4,113.35-95.03-78.49-224.84-131.99-335.34-156.83-73.58-16.54-151.04-22.61-224.09-3.9-73.06,18.71-141.38,64.71-175.05,132.19-33.68,67.48-26.51,156.65,26.5,210.28,56.81,57.47,149.13,62.86,227.49,43.12,78.36-19.74,150.08-60.16,227.64-82.87,69.1-20.23,142.49-25.61,213.88-16.49-130.21,16.93-266.65,81.21-365.72,150.9-64.59,45.44-123.8,101.24-160.68,171.07-36.88,69.83-49.26,155.19-20.61,228.78,28.65,73.59,102.85,130.77,181.75,127.38,84.55-3.63,153.67-71.45,193.49-146.12,39.82-74.67,58.92-158.74,95.87-234.87,31.22-64.32,75.51-122.24,128.88-169.82-54.47,98.16-85.99,217.15-96.48,318.06-7.8,75.01-4.75,152.65,22.4,223,27.15,70.36,80.84,132.81,151.8,158.34,70.96,25.53,158.68,7.96,205.72-50.98,50.41-63.16,44.94-155.47,16.15-230.98-28.79-75.51-77.35-141.99-108.99-216.35-12.01-28.22-21.43-57.53-28.24-87.45,46.19,84.51,110.51,162.4,173.48,220.53,55.41,51.15,119.42,95.2,192.03,115.58,72.61,20.38,154.78,14.77,217.71-26.78,62.94-41.55,101.38-122.32,82.34-195.3-20.4-78.19-97.61-129.08-175.33-151.23-77.72-22.15-160.04-23.07-238.54-42.24-34.89-8.52-68.86-20.78-101.24-36.35,82.55,21.01,169.38,28.92,244.76,26.64,75.38-2.28,151.91-15.65,218.02-51.94,66.11-36.29,120.85-97.83,136.69-171.56,15.84-73.73-13.27-158.32-77.96-197.09Z"/>
  <circle class="cls-4" cx="902.2" cy="751.9" r="108.98" transform="translate(-267.43 858.18) rotate(-45)"/>
  <path class="cls-5" d="M990.46,800.35c-14.59,11.41-36.03,22.81-55.18,20.33-9.78-1.27-17.53-7.38-21.45-16.37-4.35-9.99-2.2-19.81.25-30,1.71-7.1,4.38-15.17-3.95-18.62-6.22-2.57-13.92-1.25-20.35-.27-15.02,2.3-32.23,7.59-46.65.09-19.12-9.93-21.37-36.68-15.76-55.06,5.72-18.73,17.8-35.19,31.98-48.77-20.48,8.77-37.72,23.63-49.46,42.3l-.16.25c-.41.66-.82,1.33-1.22,2l-.12.19-.55.94-.26.45-.52.92-.24.44c-.3.55-.6,1.1-.9,1.66l-.26.5-.47.9-.29.57-.43.85-.58,1.19-.39.82-.38.81-.32.7-.43.98-.24.56c-.21.49-.42.98-.63,1.48l-.21.52-.44,1.1-.21.54c-.2.52-.41,1.05-.6,1.58h0c-.2.56-.4,1.11-.59,1.66l-.13.36-.1.28-.34,1.18c-3.05,9.14-4.96,18.8-5.49,28.82l-.05,1.11v.06s-.03.69-.03.69v.27s-.02.31-.02.31l-.02.75v.28s-.01.3-.01.3v.1s0,.53,0,.53v.29s0,.98,0,.98c0,3.11.13,6.18.39,9.23.29,3.45.74,6.85,1.34,10.2.63,3.5,1.43,6.94,2.38,10.32,7.13,25.19,23.09,46.66,44.33,60.88,2.77,1.85,5.62,3.58,8.57,5.18,5.2,2.83,10.66,5.24,16.32,7.2,3.15,1.09,6.37,2.04,9.65,2.85,8.33,2.04,17.04,3.12,26,3.12.57,0,1.14,0,1.7-.01h.32c.55-.01,1.09-.03,1.64-.05h.27s.02,0,.02,0c1.16-.04,2.31-.1,3.45-.18h.19c.58-.05,1.15-.1,1.73-.14h.14c36.42-3.15,67.67-24.25,84.99-54.38,3.72-6.42,6.85-13.3,9.19-20.48-4.62,5.37-9.74,10.31-15.38,14.72Z"/>
  <path class="cls-1" d="M441.15,744.56c26.66-11.55,53.45-22.86,79.2-36.37,16.47-8.65,49.11-22.55,56.3-41.69,13.29-35.38-62.43-31.69-79.14-30.79-49.08,2.65-97.7,13.13-145.25,25.07-9.93,2.49-19.85,5.02-29.77,7.52-19.08,7.98-37.79,17.26-56.03,27.84-2.39,1.38-5.44.57-6.82-1.81-1.38-2.38-.57-5.44,1.81-6.82,2.05-1.19,4.1-2.36,6.16-3.52-20.3,6.65-40.61,13.11-62.18,14.88-72.07,5.9-102.89-54.43-98.08-118.2,4.02-53.35,28-89.89,65.22-122.98-47.64,16.22-91.81,44.17-123.71,82.21l-.02.02c-.49.58-.97,1.16-1.45,1.75l-.32.39c-.42.51-.84,1.02-1.25,1.54l-.53.66c-.36.45-.72.9-1.08,1.36l-.73.93-.88,1.13c-.54.7-1.08,1.41-1.61,2.12l-.2.26c-.44.59-.88,1.18-1.31,1.78l-.5.68c-.38.53-.76,1.05-1.14,1.58l-.62.87c-.35.49-.69.98-1.03,1.48l-.72,1.05c-.31.45-.62.9-.92,1.35l-.86,1.3-.76,1.14c-.54.82-1.07,1.65-1.6,2.47l-.02.04c-.56.87-1.1,1.75-1.65,2.63l-.02.03c-1.08,1.75-2.13,3.52-3.16,5.3l-.07.11c-.48.83-.95,1.66-1.41,2.5l-.2.36c-.45.81-.89,1.62-1.33,2.43l-.21.39c-.44.82-.88,1.65-1.3,2.47l-.16.31c-.45.87-.89,1.74-1.33,2.61-33.68,67.48-26.51,156.65,26.5,210.28,56.81,57.47,149.13,62.86,227.49,43.12,1.21-.31,2.43-.62,3.64-.93,1.12-.29,2.23-.59,3.34-.89.52-.14,1.05-.28,1.57-.43.58-.16,1.17-.32,1.75-.48.67-.18,1.33-.37,2-.56l1.2-.34c.77-.22,1.55-.44,2.32-.66l.82-.24c.9-.26,1.81-.53,2.71-.79l.18-.05c.95-.28,1.91-.57,2.86-.86l1.06-.32c.67-.2,1.35-.41,2.02-.62l.94-.29c.81-.25,1.62-.5,2.42-.76h0c4.93-4.1,9.86-8.08,14.7-11.87,37.8-29.6,79.21-52.7,123.13-71.72Z"/>
  <path class="cls-1" d="M874.93,336.16c5.31,17.01,12.3,36.05,22.47,51.1-7.1-32.61-15.78-64.15-25.59-93.72l-.16-.47c-.27-.81-.54-1.62-.81-2.43-.36-1.07-.72-2.13-1.08-3.19l-.32-.94c-.26-.76-.52-1.52-.78-2.27-.39-1.13-.78-2.25-1.17-3.38l-.32-.92c-.29-.83-.59-1.66-.88-2.49-.19-.53-.38-1.07-.57-1.6-.25-.71-.51-1.42-.76-2.12-.24-.67-.48-1.34-.73-2.01-.21-.58-.42-1.16-.63-1.74-.46-1.26-.92-2.52-1.39-3.77-.5-1.36-1.01-2.71-1.52-4.07v-.03c-3.6-9.5-7.41-18.94-11.41-28.3,9.18,33.92,15.2,68.94,25.64,102.36Z"/>
  <path class="cls-1" d="M1031.29,292.09c13.5-46.26,28.76-95.4,70.63-123.75,47.55-32.19,114.58-38.46,159.3,2.33,1.46,1.33,2.87,2.67,4.24,4.01.11-2.53.21-5.06.3-7.59.09-2.76,2.37-4.94,5.15-4.82,2.75.09,4.91,2.4,4.82,5.15-.19,5.85-.47,11.68-.83,17.5,74.63,89.85-44.57,198.19-53.58,291.41-1.69,17.47,2.66,35.16,14.58,46.2,7.76-9,15.23-18.01,22.35-26.97l.95-1.2.79-1c.62-.78,1.23-1.56,1.84-2.34,46.46-59.4,85.13-126.79,99.52-200.82,14.39-74.03,2.09-155.47-44.46-214.8-46.55-59.33-130.19-91.06-201.36-66.13-76.27,26.72-120.68,107.82-136.42,187.09-.24,1.18-.46,2.37-.69,3.55l-.2,1.04c-.16.83-.31,1.66-.46,2.49l-.23,1.31c-.14.75-.27,1.5-.4,2.25-.08.46-.16.92-.24,1.38-.12.73-.25,1.45-.37,2.18-.08.47-.16.94-.23,1.4-.12.76-.25,1.51-.37,2.27l-.2,1.23c-.14.87-.27,1.75-.41,2.62l-.14.89c-.17,1.1-.33,2.19-.49,3.29l-.03.24c-8.98,62.35-7.52,126.09-14.66,188.77h.03s.96-.3.96-.3c46.94-15.69,58.22-77.51,70.3-118.88Z"/>
  <path class="cls-1" d="M508.6,109.43c54.13-41.22,127.75-53.23,192.48-33.01,30.97,9.67,61.53,26.37,86.55,48.73-11.56-15.26-24.13-29.7-37.91-43.05l-.47-.45c-.77-.75-1.55-1.49-2.33-2.23l-.61-.58c-.95-.9-1.91-1.8-2.88-2.69C687.94,25.08,612.14-7.16,537.21,1.36c-74.93,8.52-145.81,63.1-161.9,136.78-.13.58-.25,1.15-.37,1.73l-.13.65-.22,1.09-.14.72-.19,1.03-.13.74-.18,1.04-.12.71-.17,1.07-.11.69-.17,1.1-.1.66c-.17,1.15-.32,2.3-.46,3.45l-.08.64-.13,1.13-.07.69-.11,1.06-.07.71-.1,1.04-.06.72-.08,1.04-.06.73-.08,1.1-.04.62c-.07,1.17-.13,2.33-.18,3.5l-.02.47-.04,1.28-.02.62-.03,1.1v.71s-.02,1.06-.02,1.06v.69s0,1.11,0,1.11v.63s.01,1.14.01,1.14v.65c.03,1.15.06,2.3.1,3.45l.02.54.05,1.22.03.6.06,1.15.04.64.07,1.08.05.7.08,1.1.05.63.1,1.19.05.56c.11,1.15.22,2.3.35,3.45l.07.59.14,1.16.08.62.14,1.11.09.68.14,1.05.1.71.16,1.05.1.67.18,1.16.09.56c.09.56.18,1.11.28,1.67v.04c.11.57.21,1.14.31,1.7l.12.66.2,1.06.14.72.2,1,.15.72.21,1.02.15.72.22,1.01.16.71.24,1.05.15.67c.11.45.21.9.32,1.36l.08.33c.14.56.28,1.12.42,1.68l.15.57.29,1.14.17.63.29,1.07.19.69.28,1.02.19.68.3,1.03.2.69.3,1.02.2.68.4,1.31.11.36c.17.55.35,1.11.53,1.66l.19.57.35,1.09.24.71.33.98.25.73.31.91.27.77.34.96.26.71.36.98.25.69.37.99.37.98.51,1.32.2.5.44,1.12.3.76.36.89.31.75.38.92.3.72.38.91.33.77.37.86.33.76.41.94.45,1.02.56,1.25.27.6.46,1,.37.79.38.82.38.79.39.83.39.81.38.79.39.8.43.86.38.76.43.85c.27.53.53,1.05.8,1.58l.33.64.44.84.4.77.45.84.38.71.46.86.41.75.45.82.41.75.46.82.42.75.46.82.4.7c.29.5.57,1,.86,1.5l.47.82.48.82.41.7.52.88.4.68.5.83.43.71.51.83.44.72.48.78.51.82.46.73.4.63c.46.73.93,1.46,1.4,2.19l.07.11.6.92.39.59.6.91.37.57.62.92.39.58.58.86.46.67.56.82.45.65.57.82.49.7c.71,1.01,1.42,2.02,2.14,3.03l.44.61.58.8.47.65.63.86.42.57.62.83.48.65.63.84.4.53.69.91.33.43c.85,1.11,1.7,2.22,2.56,3.32l.31.39.72.91.39.49.76.95.33.41.75.94.42.52.68.83.5.6.65.79.37.45c.86,1.03,1.72,2.06,2.59,3.09l.41.49.74.87.42.49.71.82.48.55.71.81.43.49.78.88.33.37c.56.63,1.13,1.26,1.69,1.89l.32.36h0c-4.92-18.62-7.88-37.75-8.38-57.15-1.64-63.62,24.21-125.2,75.34-164.13Z"/>
  <path class="cls-1" d="M1603.32,468.26c-69.32-41.54-160.07-23.81-231.07,14.8-1.22.66-2.43,1.33-3.64,2.01l-1,.56c-.92.51-1.83,1.03-2.75,1.54l-.88.5c-1.02.58-2.03,1.16-3.04,1.75l-.46.27c-16.5,9.59-32.41,20.12-48.03,31.1,8.29-4.08,16.22-8.57,23.54-12.6,49.48-27.2,107.85-67.31,165.95-41.66,53.03,23.41,92.76,85.23,75.72,143.66-15.54,53.32-72.06,81.47-115.83,108.37-18.04,11.09-35.62,23.44-49.08,37.85,63.27-22.73,123.54-53.83,178.56-92.86,2.24-1.59,5.36-1.06,6.95,1.18,1.59,2.25,1.07,5.36-1.18,6.96-60.08,42.62-126.35,75.9-195.94,99.31-13.64,20.65-18.26,45.26-5.74,75.59,5.12,12.4,12.08,23.42,20.1,33.64,33.85-5.84,66.99-14.91,98.34-28.35h.02c1.01-.44,2.02-.88,3.03-1.32l.2-.09c.98-.43,1.95-.86,2.92-1.3l.3-.13c1.05-.48,2.1-.96,3.15-1.44l.81-.38c.82-.38,1.63-.77,2.45-1.15.47-.22.94-.45,1.41-.68l1.17-.56c.79-.39,1.59-.77,2.38-1.17l.88-.44c.82-.41,1.63-.82,2.45-1.23l.62-.32c.78-.4,1.57-.81,2.35-1.21l.62-.32c.9-.47,1.79-.94,2.69-1.42l.52-.28c.94-.5,1.87-1.01,2.8-1.52,66.11-36.29,120.85-97.83,136.69-171.56,15.84-73.73-13.27-158.32-77.96-197.09Z"/>
  <path class="cls-1" d="M1255.69,1088.5c-30.94-29.64-66.65-31.96-97.73-17.59,42.59,28.43,90.12,52.16,141.87,70.65-14.2-18.61-27.98-37.59-44.13-53.06Z"/>
  <path class="cls-1" d="M1511.4,981.36c56.32,92.75-1.28,276.57-131.68,229.66-28.84-10.38-49.69-31.51-68.61-54.99-60.08-20.03-114.83-46.9-163.19-79.81-19.24,11.49-36.15,29.39-48.27,50.87-8.39,14.87-14.98,30.89-19.75,47.42,8.3,8.32,16.63,16.35,24.93,24.01,55.41,51.15,119.42,95.2,192.03,115.58,72.61,20.38,154.78,14.77,217.71-26.78,62.94-41.55,101.38-122.32,82.34-195.3-.18-.68-.36-1.36-.55-2.03l-.18-.64c-.13-.45-.25-.9-.38-1.35l-.23-.79-.38-1.27-.23-.74-.41-1.31-.22-.7c-.19-.59-.39-1.18-.58-1.76l-.06-.19c-.22-.65-.45-1.3-.68-1.95l-.22-.61c-.16-.46-.33-.91-.49-1.37l-.25-.67-.49-1.31-.25-.66c-.19-.48-.37-.95-.56-1.43l-.2-.5c-.25-.61-.49-1.22-.75-1.82l-.04-.1c-.27-.65-.55-1.31-.83-1.96l-.15-.33c-.23-.53-.46-1.06-.7-1.58l-.21-.47c-.23-.51-.46-1.02-.7-1.52l-.18-.38c-.26-.55-.52-1.09-.78-1.64l-.13-.27c-.94-1.95-1.92-3.87-2.93-5.77l-.08-.14c-.32-.6-.64-1.19-.97-1.79l-.07-.12c-.25-.46-.51-.92-.76-1.38l-.08-.14-.71-1.25h0c-.33-.57-.66-1.14-1-1.71-1-1.7-2.04-3.39-3.1-5.06h0c-.51-.8-1.02-1.59-1.54-2.38-.36-.55-.73-1.09-1.1-1.64l-.48-.72c-.39-.58-.8-1.15-1.2-1.73l-.42-.6c-.46-.65-.92-1.29-1.38-1.93l-.26-.36c-.46-.63-.92-1.26-1.39-1.88l-.3-.41c-.48-.64-.97-1.28-1.47-1.92l-.25-.33c-.53-.68-1.07-1.37-1.61-2.04l-.13-.16c-.55-.69-1.11-1.38-1.67-2.06l-.12-.14c-.57-.69-1.14-1.37-1.71-2.05l-.11-.13c-.6-.71-1.2-1.41-1.81-2.1l-.03-.03c-.62-.71-1.25-1.42-1.88-2.12h0c-13.32-14.83-28.99-27.91-46.11-39.21Z"/>
  <path class="cls-1" d="M417.81,1238.9c2.83-28.97,15.63-56.31,27.75-82.4,20.97-45.13,66.29-131.69-7.85-155.68-47.34-15.32-96.34,30.98-141.19,39.48-33.13,6.28-57.91-11.78-69.85-38.21-12,15.4-22.95,31.57-32.55,48.61l-.61,1.08-.69,1.25c-.46.82-.91,1.64-1.35,2.47l-.33.61c-.52.96-1.03,1.92-1.54,2.89-36.88,69.83-49.26,155.19-20.61,228.78,28.65,73.59,102.85,130.77,181.75,127.38.62-.03,1.24-.06,1.85-.09l.66-.04,1.23-.07.74-.05,1.1-.08.79-.06,1.11-.09.74-.07,1.12-.11.76-.08,1.09-.12.76-.08c.47-.05.94-.11,1.41-.17l.51-.06c.57-.07,1.13-.15,1.7-.22l.64-.09,1.17-.17.8-.12,1-.16.85-.14.94-.16.86-.15.98-.18.83-.15,1.04-.2.73-.14,1.17-.24,1.18-.25,1.17-.25.84-.19.93-.21.87-.2.91-.22.9-.22.82-.21.96-.25.76-.2,1.01-.27.7-.19,1.02-.28.68-.19c.83-.24,1.66-.48,2.48-.73l.17-.05.99-.31.76-.24.99-.32.68-.22,1.04-.34.68-.23,1.04-.35.59-.2,1.14-.4.45-.16,1.23-.44.21-.08c1.44-.53,2.88-1.08,4.31-1.64l.31-.12,1.21-.49.44-.18,1.17-.48.45-.19,1.21-.51.39-.16,1.26-.55.23-.1c1.19-.52,2.38-1.06,3.56-1.61.67-.31,1.33-.62,2-.94.61-.29,1.23-.59,1.84-.89l.19-.09,1.33-.66.23-.12c.46-.23.91-.46,1.37-.69l.12-.06c3.51-1.8,6.97-3.7,10.39-5.7h0c.73-.43,1.45-.86,2.18-1.3l1.34-.82.81-.49,1.2-.75.97-.61,1.11-.71,1.02-.65,1.13-.74,1.02-.67,1.04-.7,1.08-.73,1.01-.69,1.1-.76.99-.7,1.12-.79.16-.11h0c-8.11-13.72-14.68-28.13-19.7-41.95-11.02-30.34-17.48-65.07-14.32-97.37Z"/>
  <path class="cls-1" d="M1021.23,1468.84c-59.35,33.94-105.52,1.52-132.26-54.36-23.28-48.65-30.81-117.59-71.26-155.72-9.96-9.39-22.3-14.53-35.17-15.95,4.09,34.35,10.78,68.41,20.11,101.82.74,2.65-.81,5.41-3.46,6.15-.45.13-.9.19-1.35.19-2.18,0-4.19-1.44-4.8-3.65-9.61-34.41-16.45-69.49-20.59-104.87-14.34.52-28.72,5.39-40.66,13.89-25.78,18.35-39,50.59-52.65,77.98-.87,1.73-1.75,3.49-2.64,5.26,3.37,18.13,7.94,36.01,13.91,53.48l.42,1.22c.23.67.47,1.33.7,2,.22.64.45,1.27.68,1.91l.33.9c.33.91.67,1.82,1.01,2.73l.24.63c.37.98.74,1.96,1.12,2.94,27.15,70.36,80.84,132.81,151.8,158.34,70.96,25.53,158.68,7.96,205.72-50.98.36-.45.72-.91,1.08-1.36l.33-.42.74-.97.37-.49.71-.95.33-.44.87-1.19.16-.22c.33-.46.66-.92.99-1.38l.32-.45.69-.99.33-.48.65-.96.34-.5.7-1.06.25-.37c.31-.48.62-.96.93-1.43l.22-.35.68-1.08.34-.55.59-.96.31-.52.6-1,.29-.48c.28-.49.57-.97.85-1.46l.1-.18.72-1.28.32-.57.51-.92.33-.6.53-.99.27-.5.64-1.23.15-.29c.25-.48.5-.97.74-1.46l.29-.59.46-.93.31-.65.44-.92.29-.61.48-1.04.24-.51c.23-.5.45-.99.68-1.49l.22-.49.46-1.05.28-.64.39-.91.29-.68.4-.97.23-.56c.21-.51.41-1.02.62-1.53l.18-.46.42-1.09.28-.72.32-.83.29-.78.3-.81.29-.79.28-.79c.17-.47.33-.95.5-1.42l.28-.82.26-.77.28-.84.26-.79.25-.77.28-.87.23-.73.41-1.33.29-.98.25-.87.21-.72.27-.94.18-.65.26-.94.17-.64c.32-1.2.63-2.41.93-3.62l.08-.34.27-1.13.12-.5.25-1.07.11-.49c.31-1.35.6-2.71.88-4.07h0s.27-1.33.27-1.33l.05-.25.25-1.31.04-.2c.36-1.91.7-3.82,1.01-5.74l.02-.13c.08-.47.15-.94.22-1.41l.02-.11c.1-.67.2-1.35.3-2.02l.08-.54c.08-.55.15-1.09.22-1.64l.06-.46c.08-.64.16-1.28.24-1.92l.08-.65c.06-.49.12-.99.17-1.48l.07-.6c.07-.63.13-1.25.2-1.88l.07-.75.12-1.28.07-.82c.05-.6.1-1.2.15-1.8l.06-.76.1-1.29.06-.82c.03-.48.06-.96.09-1.43l.07-1.17.06-1.14.05-1.08.04-.99c.02-.47.04-.94.06-1.4l.04-1.22.03-1.13.02-.85c.02-.69.03-1.39.04-2.08v-.67s.02-1.25.02-1.25v-.62s.01-1.31.01-1.31v-.22c0-.92,0-1.84-.01-2.77v-.43c0-.47-.02-.93-.02-1.4v-.26c-.02-1-.05-1.99-.08-2.99v-.06c-.03-1-.07-1.99-.11-2.99l-.02-.51c-.04-.93-.08-1.85-.13-2.78l-.04-.69c-.05-.9-.1-1.81-.16-2.71l-.05-.71c-.06-.91-.13-1.83-.2-2.75l-.04-.55c-.06-.79-.13-1.58-.2-2.37l-.07-.78c-.08-.84-.16-1.68-.24-2.52l-.1-1c-.08-.79-.17-1.58-.26-2.38l-.13-1.17c-.08-.69-.16-1.39-.25-2.08-.06-.48-.12-.96-.18-1.44-.06-.51-.13-1.02-.2-1.53-.08-.64-.17-1.28-.26-1.93-.06-.47-.13-.95-.2-1.42-.09-.63-.18-1.27-.28-1.9-.08-.52-.16-1.03-.24-1.55-.08-.51-.16-1.03-.24-1.54l-.19-1.19c-.13-.8-.26-1.59-.4-2.39l-.16-.91c-.16-.91-.32-1.81-.49-2.72l-.14-.73c-.2-1.06-.4-2.13-.61-3.19l-.06-.29c-.36-1.84-.74-3.67-1.14-5.5v-.04c-.27-1.21-.54-2.42-.81-3.62l-.02-.09c-.14-.6-.28-1.2-.42-1.8,4.44,57.11-6.56,111.59-60.96,142.71Z"/>
  <path class="cls-7" d="M201.18,547.23c-2.6.92-3.96,3.77-3.04,6.37.92,2.6,3.78,3.94,6.37,3.03,204.25-72.48,428.3-21.19,605.63,136.92,1.8-2.83,3.72-5.58,5.77-8.22-179.94-159.97-407.31-211.71-614.73-138.1Z"/>
  <path class="cls-7" d="M799.42,715.59c.19-.55.39-1.1.59-1.64h0c.2-.54.4-1.07.6-1.59l.21-.54.44-1.1.21-.52c.21-.49.41-.99.63-1.48l.24-.56.43-.98.15-.34c-175.19-105.25-372.73-114.09-535.33-22.85-2.06,1.16-4.12,2.33-6.16,3.52-2.38,1.38-3.2,4.44-1.81,6.82,1.38,2.39,4.43,3.2,6.82,1.81,18.24-10.58,36.95-19.85,56.03-27.84,149.32-62.45,321.89-45.59,476.7,47.93l.1-.28.13-.36Z"/>
  <path class="cls-7" d="M1005.35,787.14c-1.1,3.21-2.34,6.36-3.72,9.43,49.71,10.16,100.34,15.15,150.98,15.15,84.31,0,168.6-13.85,248.52-40.73,69.59-23.4,135.86-56.69,195.94-99.31,2.25-1.59,2.78-4.71,1.18-6.96-1.59-2.25-4.71-2.77-6.95-1.18-55.02,39.03-115.29,70.12-178.56,92.86-129.71,46.61-271.99,58.07-407.38,30.73Z"/>
  <path class="cls-7" d="M1464.14,555.36c2.06-1.83,2.26-4.98.43-7.04-1.84-2.06-4.98-2.25-7.05-.43-124.65,110.41-286.23,184.37-446.37,206.68-.08,3.43-.32,6.82-.72,10.16,162.75-22.25,327.08-97.22,453.71-209.38Z"/>
  <path class="cls-7" d="M982.8,678.56c172.86-116.48,279.94-296.24,292.08-493.64.36-5.82.63-11.65.83-17.5.09-2.75-2.07-5.06-4.82-5.15-2.78-.12-5.06,2.07-5.15,4.82-.08,2.53-.18,5.06-.3,7.59-9.04,198.65-115.79,380.08-289.83,496.68,2.51,2.28,4.9,4.69,7.19,7.19Z"/>
  <path class="cls-7" d="M1103.17,193.87c-.18-2.75-2.55-4.87-5.29-4.67-2.75.17-4.84,2.54-4.67,5.29,10.34,164.09-42.97,330.13-144.7,458.73,3.07,1.44,6.06,3.03,8.97,4.74,102.49-130.31,156.14-298.19,145.69-464.1Z"/>
  <path class="cls-7" d="M772.45,1242.45c4.14,35.38,10.98,70.46,20.59,104.87.61,2.2,2.62,3.65,4.8,3.65.45,0,.9-.06,1.35-.19,2.65-.74,4.2-3.49,3.46-6.15-9.33-33.41-16.02-67.47-20.11-101.82-16.04-134.58,7.68-273.55,67.69-395.1-2.94-1.6-5.8-3.33-8.57-5.18-60.9,122.99-85.14,263.63-69.21,399.92Z"/>
  <path class="cls-7" d="M959.95,1304.29c.95,1.47,2.56,2.27,4.19,2.27.93,0,1.88-.26,2.71-.81,2.31-1.5,2.97-4.59,1.47-6.9-83.95-129.21-116.3-288.66-92.12-441.09-3.28-.8-6.5-1.75-9.65-2.85-24.93,155.24,7.88,317.74,93.4,449.38Z"/>
  <path class="cls-7" d="M1147.92,1076.22c48.36,32.91,103.11,59.78,163.19,79.81,46.57,15.53,96.36,26.94,148.85,33.87l.66.04c2.47,0,4.61-1.83,4.94-4.34.36-2.73-1.56-5.24-4.29-5.6-57.33-7.56-111.37-20.54-161.45-38.44-51.75-18.49-99.28-42.23-141.87-70.65-87.4-58.34-153.99-136.44-193.54-229.52-2.76,1.92-5.62,3.72-8.56,5.39,39.71,92.68,105.72,170.69,192.06,229.44Z"/>
  <path class="cls-7" d="M1473.34,1051.68l.76.06c2.42,0,4.55-1.77,4.93-4.23.42-2.72-1.45-5.27-4.18-5.69-191.91-29.45-366.25-111.88-484.23-226.21-1.96,2.71-4.03,5.33-6.23,7.84,119.47,115.39,295.42,198.53,488.94,228.22Z"/>
  <path class="cls-7" d="M612.69,112.76c-2.36-1.4-5.43-.62-6.83,1.76-1.4,2.37-.62,5.43,1.75,6.83,177.96,105.21,279.54,298.04,278.12,522.81,3.28-.5,6.61-.85,9.99-1.05,1.11-227.89-102.23-423.46-283.04-530.35Z"/>
  <path class="cls-7" d="M554.24,303.94c-2.66-.77-5.42.76-6.18,3.4s.76,5.41,3.41,6.18c153.29,44.41,266.14,169.47,307.62,338.27,3.06-1.32,6.2-2.51,9.41-3.55-42.56-171.72-157.79-298.97-314.25-344.3Z"/>
  <path class="cls-7" d="M793.22,750.92c-140.94,36.23-272.88,112.02-373.31,216.43-1.91,1.99-1.85,5.15.14,7.05.97.93,2.21,1.39,3.46,1.39,1.31,0,2.62-.51,3.6-1.53,98.66-102.57,228.12-177.16,366.5-213.14-.25-3.04-.39-6.12-.39-9.23v-.98Z"/>
  <path class="cls-7" d="M495.21,1250.8c-.29,2.74,1.69,5.2,4.43,5.49l.53.03c2.52,0,4.68-1.9,4.96-4.46,20.13-189.41,132.25-367.11,292.2-470.2-.95-3.38-1.75-6.82-2.38-10.32-164.04,104.41-279.17,285.92-299.74,479.47Z"/>
  <path class="cls-2" d="M966.18,834.98c-16.42,11.69-37.03,19.06-57.28,15.17-15.98-3.07-27.83-13.59-31.74-29.51-1.62-6.6-2.01-13.22-2.03-19.98,0-4.53,1.01-11.95-1.6-16.02-.58-.9-.77-.97-2.6-.99-3.43-.03-7.25,1.68-10.32,3.04-7.94,3.5-15.35,8.33-24.07,9.69-19.06,2.98-32.15-14.44-36.98-30.82-4.54-15.38-4.22-32.46-.72-48.15-3.05,9.14-4.96,18.8-5.49,28.82l-.05,1.11v.06s-.03.69-.03.69v.27s-.02.31-.02.31l-.02.75v.28s-.01.3-.01.3v.1s0,.53,0,.53v.29s0,.98,0,.98c0,3.11.13,6.18.39,9.23.29,3.45.74,6.85,1.34,10.2.63,3.5,1.43,6.94,2.38,10.32,7.13,25.19,23.09,46.66,44.33,60.88,2.77,1.85,5.62,3.58,8.57,5.18,5.2,2.83,10.66,5.24,16.32,7.2,3.15,1.09,6.37,2.04,9.65,2.85,8.33,2.04,17.04,3.12,26,3.12.57,0,1.14,0,1.7-.01h.32c.55-.01,1.09-.03,1.64-.05h.27s.02,0,.02,0c1.16-.04,2.31-.1,3.45-.18h.19c.58-.05,1.15-.1,1.73-.14h.14c36.42-3.15,68.24-24.49,84.99-54.38-9.02,10.78-19.2,20.85-30.47,28.87Z"/>
  <path class="cls-3" d="M906.47,676.35c-13.92,13.92-7.51,42.91,14.33,64.75,21.84,21.84,50.83,28.26,64.75,14.33,13.92-13.92,7.5-42.91-14.34-64.75-21.84-21.84-50.83-28.26-64.75-14.33Z"/>
</svg>